<?xml version="1.0" standalone="no"?>
<!DOCTYPE svg PUBLIC "-//W3C//DTD SVG 20010904//EN"
 "http://www.w3.org/TR/2001/REC-SVG-20010904/DTD/svg10.dtd">
<svg version="1.0" xmlns="http://www.w3.org/2000/svg"
 width="300.000000pt" height="300.000000pt" viewBox="0 0 300.000000 300.000000"
 preserveAspectRatio="xMidYMid meet">
<metadata>
Created by potrace 1.13, written by Peter Selinger 2001-2015
</metadata>
<g transform="translate(0.000000,300.000000) scale(0.100000,-0.100000)"
fill="#000000" stroke="none">
<path d="M1305 2899 c-449 -59 -769 -341 -900 -794 -31 -107 -55 -249 -55
-325 0 -54 -2 -57 -44 -93 -26 -21 -56 -60 -72 -93 -24 -49 -28 -72 -32 -170
-3 -81 0 -133 12 -186 29 -130 104 -265 178 -318 34 -25 44 -42 68 -110 76
-220 234 -404 458 -537 58 -34 97 -65 107 -82 19 -38 165 -113 275 -142 116
-31 291 -31 405 0 113 30 244 98 273 141 14 22 57 55 110 87 219 129 377 316
452 533 24 68 34 85 68 110 74 53 149 188 178 318 12 53 15 105 12 186 -4 98
-8 121 -31 169 -16 31 -44 70 -64 87 -21 19 -37 43 -38 58 -2 15 -6 61 -10
102 -26 298 -151 584 -336 769 -154 154 -345 246 -593 286 -94 15 -319 17
-421 4z m409 -154 c43 -7 81 -16 84 -19 3 -3 -129 -6 -294 -5 -293 1 -321 5
-189 28 80 14 312 12 399 -4z m-828 -332 c124 -120 384 -184 688 -170 270 12
480 81 569 187 27 31 28 32 47 15 48 -44 94 -253 105 -480 8 -171 21 -208 85
-240 45 -23 49 -28 60 -78 6 -29 13 -154 15 -277 4 -182 8 -226 19 -228 17 -4
23 46 32 273 4 88 10 170 15 182 23 62 104 42 149 -38 23 -41 25 -53 25 -174
-1 -123 -2 -134 -33 -212 -36 -89 -100 -172 -151 -193 -25 -10 -33 -23 -56
-98 -76 -247 -243 -435 -502 -566 l-53 -26 -1 47 c0 27 -1 91 0 143 1 103 3
103 -44 -5 -44 -102 -133 -172 -205 -162 -20 2 -55 16 -78 31 -53 33 -80 33
-149 -4 -65 -35 -92 -37 -149 -11 -57 26 -113 100 -149 200 -12 33 -14 24 -14
-101 -1 -76 -3 -138 -6 -138 -11 0 -111 53 -165 88 -200 126 -330 292 -395
504 -23 75 -31 88 -56 98 -51 21 -115 104 -151 193 -31 78 -32 89 -33 212 0
121 2 133 25 174 46 81 135 103 159 39 5 -13 11 -95 15 -183 9 -227 15 -277
32 -273 12 2 15 45 19 228 2 124 9 249 15 278 11 49 15 54 60 77 64 32 77 69
85 240 11 221 54 424 101 476 9 11 18 19 19 19 0 0 23 -21 51 -47z"/>
<path d="M692 1550 c-122 -12 -129 -16 -100 -61 38 -56 79 -71 178 -65 370 23
430 19 588 -40 35 -14 67 -23 69 -20 9 9 -104 90 -165 118 -137 62 -355 88
-570 68z"/>
<path d="M1990 1550 c-147 -18 -278 -67 -368 -139 -30 -24 -52 -45 -49 -47 2
-3 34 6 69 20 158 59 218 63 588 40 99 -6 140 9 178 65 30 45 24 48 -119 61
-128 11 -203 11 -299 0z"/>
<path d="M807 1383 c-4 -3 -7 -34 -7 -67 0 -104 58 -195 147 -233 90 -37 224
0 282 79 31 41 57 127 47 153 -10 27 -21 16 -22 -23 0 -46 -32 -113 -56 -120
-10 -2 -15 -8 -12 -13 3 -5 1 -9 -5 -9 -5 0 -13 5 -16 10 -12 20 -26 10 -15
-10 12 -22 1 -27 -18 -8 -9 9 -12 8 -12 -6 0 -15 -3 -16 -15 -6 -13 10 -15 9
-15 -11 l-1 -24 -13 24 -13 23 -7 -23 -8 -24 -8 25 -7 25 -11 -25 -11 -25 -1
30 -1 30 -14 -25 -14 -25 -1 24 c0 24 0 24 -21 5 -22 -19 -22 -19 -14 6 8 25
8 25 -14 6 -23 -21 -27 -16 -10 15 9 19 9 19 -10 10 -26 -15 -38 -14 -23 1 18
18 14 27 -8 21 -12 -3 -20 -1 -18 5 2 6 -6 17 -17 25 -16 12 -20 27 -20 79 l0
63 41 3 42 3 -5 -44 c-7 -55 18 -112 61 -139 24 -15 44 -18 85 -15 47 3 59 9
87 40 61 66 56 157 -8 157 -25 0 -29 -3 -20 -12 37 -37 -12 -113 -57 -88 -45
23 -44 82 1 99 17 6 11 9 -33 14 -71 9 -204 9 -212 0z"/>
<path d="M1921 1376 c-71 -9 -86 -14 -94 -33 -15 -34 1 -91 37 -130 28 -31 40
-37 87 -40 41 -3 61 0 85 15 43 27 68 84 61 139 l-5 44 42 -3 41 -3 0 -63 c0
-54 -4 -67 -22 -82 -12 -10 -19 -21 -15 -25 4 -4 -3 -5 -15 -2 -25 6 -29 -3
-11 -21 15 -15 3 -16 -23 -1 -19 9 -19 9 -10 -10 17 -31 13 -36 -10 -15 -22
19 -22 19 -14 -6 l8 -25 -23 20 -23 20 5 -27 c3 -16 4 -28 2 -28 -2 0 -10 12
-18 28 l-15 27 -1 -30 -1 -30 -13 25 -14 24 -5 -24 -4 -25 -8 24 -8 23 -13
-23 -13 -24 -1 24 c0 20 -2 21 -15 11 -12 -10 -15 -9 -15 6 0 14 -3 15 -12 6
-19 -19 -30 -14 -18 8 11 20 -3 30 -15 10 -9 -14 -26 -12 -22 2 1 7 -4 12 -12
13 -21 0 -55 73 -56 117 0 39 -11 50 -21 23 -10 -26 16 -112 47 -153 58 -79
192 -116 283 -78 92 38 149 133 144 239 l-3 62 -95 1 c-52 1 -133 -4 -179 -10z"/>
<path d="M1190 635 c0 -2 19 -17 43 -34 90 -62 231 -90 352 -71 75 11 180 56
210 90 l18 20 -311 0 c-172 0 -312 -2 -312 -5z m515 -41 c-35 -26 -98 -39
-205 -39 -102 0 -200 21 -215 46 -4 5 83 9 217 9 200 -1 221 -2 203 -16z"/>
</g>
</svg>
